<svg width="376" height="325" viewBox="0 0 376 325" fill="none" xmlns="http://www.w3.org/2000/svg">
<path fill-rule="evenodd" clip-rule="evenodd" d="M206.117 179.706C193.547 140.198 167.129 112.078 137.352 91.0299C112.136 73.2054 84.6938 60.8858 63.7628 55.8925C55.3938 53.8958 47.3835 53.0221 38.8081 53.3156C35.2935 53.4359 32.2585 53.6806 30.1221 53.5715C23.8252 53.0612 26.4773 47.2576 32.0326 42.5964C35.7807 39.4518 40.5528 37.301 45.1533 35.7442C59.4281 30.9135 75.5023 31.765 90.1033 36.6874C105.649 41.9284 121.801 53.6561 134.12 64.2346C170.094 95.127 199.929 140.801 206.117 179.706Z" fill="url(#paint0_linear_25_378)"/>
<path fill-rule="evenodd" clip-rule="evenodd" d="M200.326 164.392C200.241 164.199 200.155 164.005 200.069 163.812C200.155 164.005 200.241 164.199 200.326 164.392Z" fill="#373435"/>
<path fill-rule="evenodd" clip-rule="evenodd" d="M200.797 165.472C200.712 165.274 200.626 165.078 200.541 164.881C200.626 165.077 200.712 165.275 200.797 165.472Z" fill="#373435"/>
<path fill-rule="evenodd" clip-rule="evenodd" d="M81.935 34.3993L81.9341 34.3983C80.6412 24.611 73.6779 13.5156 61.9438 1.31927C113.579 6.27899 217.844 99.3021 206.116 179.706C199.929 140.801 170.094 95.127 134.119 64.2347C121.801 53.6561 105.649 41.9285 90.1029 36.6874C87.4231 35.784 84.6938 35.0182 81.935 34.3993Z" fill="url(#paint1_linear_25_378)"/>
<path fill-rule="evenodd" clip-rule="evenodd" d="M189.04 143.4C188.332 185.109 174.975 208.591 158.248 227.218L157.011 227.107C135.185 213.504 148.121 196.24 162.88 174.608C174.163 153.054 183.76 134.561 169.319 118.409L169.343 118.408C176.568 126.017 183.211 134.316 189.04 143.4Z" fill="url(#paint2_linear_25_378)"/>
<path d="M192.58 54.5699C205.639 54.5699 216.226 43.9851 216.226 30.928C216.226 17.871 205.639 7.28613 192.58 7.28613C179.52 7.28613 168.933 17.871 168.933 30.928C168.933 43.9851 179.52 54.5699 192.58 54.5699Z" fill="url(#paint3_linear_25_378)"/>
<path fill-rule="evenodd" clip-rule="evenodd" d="M198.501 53.8224C196.609 54.3102 194.624 54.5699 192.58 54.5699C179.52 54.5699 168.933 43.9849 168.933 30.928C168.933 22.8511 172.985 15.7216 179.166 11.4567C191.024 19.5196 198.813 33.1178 198.813 48.5359C198.813 50.3248 198.705 52.0883 198.501 53.8224Z" fill="url(#paint4_radial_25_378)"/>
<path fill-rule="evenodd" clip-rule="evenodd" d="M328.651 53.04C261.361 51.601 225.023 97.7464 220.741 147.581C208.899 102.43 235.848 57.2436 273.649 38.6348C282.944 34.0588 290.863 31.3374 301.277 31.675C317.94 32.2151 337.688 39.4379 339.844 50.5997C339.949 52.0575 339.26 52.8143 338.097 53.1628C336.148 53.7477 332.528 53.0557 328.651 53.04Z" fill="url(#paint5_linear_25_378)"/>
<path fill-rule="evenodd" clip-rule="evenodd" d="M218.067 130.743L218.066 130.744C198.324 79.2611 242.772 10.4603 314.121 0C301.354 10.9761 292.927 21.9525 288.544 32.9288L288.543 32.9293C283.56 34.1198 278.817 36.0903 273.649 38.6348C240.561 54.9234 215.788 91.5753 218.067 130.743Z" fill="url(#paint6_linear_25_378)"/>
<path fill-rule="evenodd" clip-rule="evenodd" d="M205.77 178.631L205.731 178.511C205.62 178.173 205.508 177.835 205.396 177.498L205.342 177.338C205.231 177.007 205.118 176.676 205.004 176.345L204.947 176.177C204.835 175.853 204.722 175.529 204.608 175.206L204.539 175.012C204.428 174.697 204.315 174.382 204.202 174.069L204.122 173.849C204.008 173.535 203.894 173.221 203.778 172.909L203.723 172.761C203.611 172.462 203.499 172.163 203.386 171.865L203.303 171.646C203.198 171.369 203.092 171.093 202.985 170.818L202.881 170.548C202.774 170.275 202.667 170.003 202.559 169.731L202.427 169.396C202.325 169.141 202.223 168.887 202.12 168.633L201.959 168.237C201.862 168.001 201.765 167.765 201.667 167.529L201.49 167.103C201.408 166.906 201.325 166.71 201.242 166.513C201.165 166.331 201.087 166.148 201.009 165.965L200.82 165.526C200.721 165.296 200.622 165.067 200.522 164.838L200.352 164.451C200.243 164.202 200.133 163.955 200.023 163.708L199.88 163.389C199.742 163.082 199.603 162.775 199.463 162.47L199.393 162.318C196.336 155.657 192.863 149.361 189.04 143.402C188.332 185.109 174.975 208.592 158.249 227.218L158.455 227.88C180.995 236.016 204.075 203.334 206.117 179.706C206.002 179.347 205.887 178.988 205.77 178.631Z" fill="#0D979D"/>
<mask id="mask0_25_378" style="mask-type:luminance" maskUnits="userSpaceOnUse" x="173" y="137" width="34" height="48">
<path d="M205.522 184.062C196.414 171.267 185.671 160.297 173.965 150.802C175.56 146.136 176.545 141.633 176.607 137.282C186.822 148.257 195.962 160.045 203.46 172.064C204.132 173.85 204.779 175.661 205.396 177.498L205.401 177.514L205.405 177.527L205.406 177.53L205.411 177.546L205.417 177.562L205.422 177.577L205.427 177.593L205.432 177.609L205.438 177.625L205.443 177.641L205.445 177.648L205.448 177.656L205.453 177.672L205.459 177.688L205.464 177.704L205.469 177.72L205.475 177.736L205.48 177.751L205.485 177.767L205.486 177.768L205.49 177.783L205.496 177.799L205.501 177.815L205.506 177.83L205.512 177.846L205.522 177.878L205.526 177.889L205.527 177.894L205.532 177.91L205.538 177.925L205.543 177.941L205.548 177.957L205.553 177.973L205.559 177.989L205.564 178.004L205.566 178.009L205.569 178.02L205.574 178.036L205.58 178.052L205.585 178.068L205.59 178.084L205.596 178.099L205.606 178.13L205.606 178.131L205.611 178.147L205.616 178.163L205.622 178.179L205.632 178.21L205.637 178.226L205.642 178.242L205.645 178.251L205.648 178.258L205.653 178.274L205.658 178.289L205.663 178.305L205.669 178.321L205.674 178.337L205.679 178.353L205.684 178.369L205.685 178.372L205.689 178.385L205.695 178.4L205.7 178.416L205.705 178.432L205.71 178.448L205.715 178.464L205.721 178.48L205.725 178.493L205.726 178.496L205.731 178.512L205.734 178.521L205.77 178.631L205.933 179.134L205.939 179.151L205.95 179.185L205.955 179.201L205.966 179.235L205.971 179.252L205.977 179.269L205.987 179.302L205.993 179.319L205.998 179.336L206 179.341L206.004 179.353L206.009 179.369L206.014 179.386L206.02 179.403L206.025 179.42L206.031 179.437L206.036 179.454L206.039 179.463L206.041 179.47L206.047 179.487L206.052 179.504L206.057 179.521L206.063 179.538L206.068 179.555L206.074 179.572L206.078 179.585L206.079 179.588L206.084 179.605L206.09 179.622L206.095 179.639L206.101 179.656L206.106 179.673L206.111 179.689L206.117 179.706C205.994 181.129 205.793 182.585 205.522 184.062Z" fill="white"/>
</mask>
<g mask="url(#mask0_25_378)">
<path fill-rule="evenodd" clip-rule="evenodd" d="M113.489 76.8176H266.592V244.526H113.489V76.8176Z" fill="#7797A2"/>
<path fill-rule="evenodd" clip-rule="evenodd" d="M206.116 179.706C193.546 140.198 167.128 112.078 137.352 91.0299C112.136 73.2054 84.6933 60.8858 63.7623 55.8925C55.3933 53.8958 47.383 53.0221 38.8076 53.3156C35.293 53.4359 32.258 53.6806 30.1216 53.5715C23.8247 53.0612 26.4768 47.2576 32.0321 42.5964C35.7802 39.4518 40.5523 37.301 45.1528 35.7442C59.4276 30.9135 75.5018 31.765 90.1028 36.6874C105.649 41.9284 121.8 53.6561 134.119 64.2346C170.094 95.127 199.929 140.801 206.116 179.706Z" fill="url(#paint7_linear_25_378)"/>
<path fill-rule="evenodd" clip-rule="evenodd" d="M200.326 164.392C200.241 164.199 200.155 164.005 200.069 163.812C200.155 164.005 200.241 164.199 200.326 164.392Z" fill="#51676E"/>
<path fill-rule="evenodd" clip-rule="evenodd" d="M200.797 165.472C200.712 165.274 200.626 165.078 200.541 164.881C200.626 165.077 200.712 165.275 200.797 165.472Z" fill="#51676E"/>
<path fill-rule="evenodd" clip-rule="evenodd" d="M81.935 34.3993L81.9341 34.3983C80.6412 24.611 73.6779 13.5156 61.9438 1.31927C113.579 6.27899 217.844 99.3021 206.116 179.706C199.929 140.801 170.094 95.127 134.119 64.2347C121.801 53.6561 105.649 41.9285 90.1029 36.6874C87.4231 35.784 84.6938 35.0182 81.935 34.3993Z" fill="url(#paint8_linear_25_378)"/>
<path fill-rule="evenodd" clip-rule="evenodd" d="M189.04 143.4C188.332 185.109 174.975 208.591 158.248 227.218L157.011 227.107C135.185 213.504 148.121 196.24 162.88 174.608C174.163 153.054 183.76 134.561 169.319 118.409L169.343 118.408C176.568 126.017 183.211 134.316 189.04 143.4Z" fill="url(#paint9_linear_25_378)"/>
<path fill-rule="evenodd" clip-rule="evenodd" d="M205.769 178.631L205.731 178.511C205.62 178.173 205.508 177.835 205.395 177.498L205.342 177.338C205.23 177.007 205.118 176.676 205.004 176.345L204.946 176.177C204.834 175.853 204.721 175.529 204.608 175.206L204.539 175.012C204.427 174.697 204.315 174.382 204.202 174.069L204.122 173.849C204.008 173.535 203.893 173.221 203.777 172.909L203.722 172.761C203.611 172.462 203.499 172.163 203.386 171.865L203.303 171.646C203.198 171.369 203.092 171.093 202.985 170.818L202.88 170.548C202.774 170.275 202.667 170.003 202.559 169.731L202.426 169.396C202.325 169.141 202.222 168.887 202.119 168.633L201.958 168.237C201.862 168.001 201.765 167.765 201.667 167.529L201.49 167.103C201.408 166.906 201.325 166.71 201.242 166.513C201.164 166.331 201.087 166.148 201.009 165.965L200.82 165.526C200.721 165.296 200.621 165.067 200.521 164.838L200.351 164.451C200.242 164.202 200.132 163.955 200.022 163.708L199.879 163.389C199.741 163.082 199.602 162.775 199.462 162.47L199.393 162.318C196.336 155.657 192.863 149.361 189.039 143.402C188.331 185.109 174.974 208.592 158.248 227.218L158.454 227.88C180.994 236.016 204.075 203.334 206.116 179.706C206.002 179.347 205.886 178.988 205.769 178.631Z" fill="#1F7E88"/>
</g>
<mask id="mask1_25_378" style="mask-type:luminance" maskUnits="userSpaceOnUse" x="169" y="118" width="35" height="55">
<path d="M169.343 118.408C169.647 118.728 169.95 119.049 170.252 119.372L170.448 119.582C170.765 119.922 171.08 120.262 171.395 120.604L171.552 120.776C171.865 121.118 172.177 121.461 172.488 121.805L172.631 121.965C172.955 122.324 173.277 122.685 173.598 123.048L173.713 123.178C174.039 123.546 174.363 123.916 174.686 124.288L174.806 124.427C175.124 124.793 175.44 125.161 175.755 125.531L175.859 125.653C176.181 126.032 176.502 126.412 176.821 126.794L176.911 126.901C177.237 127.292 177.562 127.685 177.886 128.08L177.973 128.187C178.288 128.571 178.601 128.958 178.913 129.345L179.008 129.464C179.333 129.869 179.656 130.276 179.977 130.684L179.999 130.711C180.331 131.133 180.661 131.557 180.989 131.982L181.034 132.041C181.351 132.452 181.666 132.865 181.98 133.28L182.042 133.363C182.361 133.784 182.677 134.208 182.992 134.634L183.016 134.667C183.34 135.104 183.661 135.544 183.981 135.985L183.999 136.01C184.316 136.449 184.632 136.89 184.946 137.333L184.97 137.367C185.286 137.813 185.601 138.262 185.913 138.713L185.916 138.718C187.148 140.496 188.348 142.307 189.515 144.148L189.708 144.453C189.948 144.833 190.186 145.215 190.423 145.598L190.596 145.878C190.836 146.269 191.076 146.661 191.313 147.055L191.463 147.304C191.709 147.714 191.954 148.124 192.196 148.537L192.315 148.739C192.562 149.16 192.807 149.582 193.05 150.006L193.157 150.192C193.407 150.631 193.657 151.071 193.904 151.514L193.982 151.653C194.238 152.112 194.491 152.572 194.743 153.035L194.787 153.115C195.048 153.595 195.306 154.077 195.563 154.562L195.585 154.603C198.519 160.15 201.159 165.964 203.46 172.064C195.962 160.045 186.821 148.257 176.606 137.282C176.701 130.648 174.648 124.369 169.319 118.409L169.343 118.408Z" fill="white"/>
</mask>
<g mask="url(#mask1_25_378)">
<path fill-rule="evenodd" clip-rule="evenodd" d="M108.843 57.9438H263.936V232.528H108.843V57.9438Z" fill="#8599A5"/>
<path fill-rule="evenodd" clip-rule="evenodd" d="M206.116 179.706C193.546 140.198 167.128 112.078 137.352 91.0299C112.136 73.2054 84.6933 60.8858 63.7623 55.8925C55.3933 53.8958 47.383 53.0221 38.8076 53.3156C35.293 53.4359 32.258 53.6806 30.1216 53.5715C23.8247 53.0612 26.4768 47.2576 32.0321 42.5964C35.7802 39.4518 40.5523 37.301 45.1528 35.7442C59.4276 30.9135 75.5018 31.765 90.1028 36.6874C105.649 41.9284 121.8 53.6561 134.119 64.2346C170.094 95.127 199.929 140.801 206.116 179.706Z" fill="url(#paint10_linear_25_378)"/>
<path fill-rule="evenodd" clip-rule="evenodd" d="M200.326 164.392C200.241 164.199 200.155 164.005 200.069 163.812C200.155 164.005 200.241 164.199 200.326 164.392Z" fill="#4F5C63"/>
<path fill-rule="evenodd" clip-rule="evenodd" d="M200.797 165.472C200.712 165.274 200.626 165.078 200.541 164.881C200.626 165.077 200.712 165.275 200.797 165.472Z" fill="#4F5C63"/>
<path fill-rule="evenodd" clip-rule="evenodd" d="M81.935 34.3993L81.9341 34.3983C80.6412 24.611 73.6779 13.5156 61.9438 1.31927C113.579 6.27899 217.844 99.3021 206.116 179.706C199.929 140.801 170.094 95.127 134.119 64.2347C121.801 53.6561 105.649 41.9285 90.1029 36.6874C87.4231 35.784 84.6938 35.0182 81.935 34.3993Z" fill="url(#paint11_linear_25_378)"/>
<path fill-rule="evenodd" clip-rule="evenodd" d="M189.04 143.4C188.332 185.109 174.975 208.591 158.248 227.218L157.011 227.107C135.185 213.504 148.121 196.24 162.88 174.608C174.163 153.054 183.76 134.561 169.319 118.409L169.343 118.408C176.568 126.017 183.211 134.316 189.04 143.4Z" fill="url(#paint12_linear_25_378)"/>
<path fill-rule="evenodd" clip-rule="evenodd" d="M218.067 130.743L218.066 130.744C198.324 79.2611 242.772 10.4603 314.121 0C301.354 10.9761 292.927 21.9525 288.544 32.9288L288.543 32.9293C283.56 34.1198 278.817 36.0903 273.649 38.6348C240.561 54.9234 215.788 91.5753 218.067 130.743Z" fill="url(#paint13_linear_25_378)"/>
<path fill-rule="evenodd" clip-rule="evenodd" d="M205.769 178.631L205.731 178.511C205.62 178.173 205.508 177.835 205.395 177.498L205.342 177.338C205.23 177.007 205.118 176.676 205.004 176.345L204.946 176.177C204.834 175.853 204.721 175.529 204.608 175.206L204.539 175.012C204.427 174.697 204.315 174.382 204.202 174.069L204.122 173.849C204.008 173.535 203.893 173.221 203.777 172.909L203.722 172.761C203.611 172.462 203.499 172.163 203.386 171.865L203.303 171.646C203.198 171.369 203.092 171.093 202.985 170.818L202.88 170.548C202.774 170.275 202.667 170.003 202.559 169.731L202.426 169.396C202.325 169.141 202.222 168.887 202.119 168.633L201.958 168.237C201.862 168.001 201.765 167.765 201.667 167.529L201.49 167.103C201.408 166.906 201.325 166.71 201.242 166.513C201.164 166.331 201.087 166.148 201.009 165.965L200.82 165.526C200.721 165.296 200.621 165.067 200.521 164.838L200.351 164.451C200.242 164.202 200.132 163.955 200.022 163.708L199.879 163.389C199.741 163.082 199.602 162.775 199.462 162.47L199.393 162.318C196.336 155.657 192.863 149.361 189.039 143.402C188.331 185.109 174.974 208.592 158.248 227.218L158.454 227.88C180.994 236.016 204.075 203.334 206.116 179.706C206.002 179.347 205.886 178.988 205.769 178.631Z" fill="#1F7A84"/>
</g>
<path fill-rule="evenodd" clip-rule="evenodd" d="M24.9469 289.26C27.996 292.36 29.9464 297.177 29.296 303.343H23.8714H21.7519H7.30023C8.07119 307.353 11.8643 310.398 16.4279 310.398C19.5257 310.398 22.2683 308.995 23.9517 306.839L27.8748 310.477C25.0224 314.127 20.5786 316.474 15.5862 316.474C6.97833 316.474 0 309.497 0 300.891C0 296.353 1.94024 292.268 5.03643 289.42C10.6505 284.256 19.399 283.62 24.9469 289.26ZM14.9805 291.298C19.0102 291.298 22.36 294.343 23.0407 298.353H6.92C7.60095 294.343 10.9505 291.298 14.9805 291.298ZM42.2902 289.137C44.4881 286.918 47.5326 285.537 50.8843 285.537C54.7779 285.537 58.2569 287.4 60.4757 290.278C62.6945 287.4 66.1733 285.537 70.0671 285.537C76.7264 285.537 82.175 290.985 82.175 297.642V315.445H74.6729V298.07C74.6729 294.884 72.0659 292.278 68.88 292.278H68.3102C64.8629 292.278 62.0426 295.098 62.0426 298.545V315.445H54.8252V298.07C54.8252 294.884 52.2186 292.278 49.0326 292.278H48.4626C45.0155 292.278 42.1952 295.098 42.1952 298.545V315.445H38.7764H34.9779V286.012H42.2902V289.137ZM105.974 285.498C113.796 285.498 120.137 292.386 120.137 300.884C120.137 309.382 113.796 316.271 105.974 316.271C102.223 316.271 98.8138 314.687 96.2798 312.101V324.775H88.8871V285.94H96.2798V289.667C98.8138 287.082 102.223 285.498 105.974 285.498ZM104.494 291.5C109.07 291.5 112.78 295.607 112.78 300.673C112.78 305.739 109.07 309.846 104.494 309.846C99.9172 309.846 96.2069 305.739 96.2069 300.673C96.2069 295.607 99.9172 291.5 104.494 291.5ZM125.927 315.369H133.391V273.84H125.927V315.369ZM155.242 285.52C163.964 285.52 171.035 292.419 171.035 300.931C171.035 309.442 163.964 316.342 155.242 316.342C146.52 316.342 139.449 309.442 139.449 300.931C139.449 292.419 146.52 285.52 155.242 285.52ZM155.242 291.901C160.081 291.901 164.004 295.944 164.004 300.931C164.004 305.918 160.081 309.961 155.242 309.961C150.403 309.961 146.48 305.918 146.48 300.931C146.48 295.944 150.403 291.901 155.242 291.901Z" fill="#373435"/>
<path fill-rule="evenodd" clip-rule="evenodd" d="M345.807 302.751H351.276L353.104 275.985H344.08L345.807 302.751ZM348.839 306.983C351.419 306.983 353.511 309.074 353.511 311.654C353.511 314.233 351.419 316.324 348.839 316.324C346.259 316.324 344.167 314.233 344.167 311.654C344.167 309.074 346.259 306.983 348.839 306.983ZM300.668 315.341H308.865V299.581H327.331V315.341H335.528V275.985H327.331V292.556H308.865V275.985H300.668V315.341ZM286.779 315.524L295.947 315.386L277.898 275.985H277.589H269.868H269.558L251.509 315.386L260.677 315.524L273.728 285.011L286.779 315.524ZM216.826 315.341H219.618H225.023H247.903V307.776H225.023V299.581H245.38V292.556H225.023V283.55H247.903V275.985H225.023H219.618H216.826V315.341ZM187.73 315.341H195.928V302.365L212.052 275.985H203.134L191.919 294.333L180.704 275.985H171.787L187.73 302.07V315.341Z" fill="#FCB43B"/>
<path fill-rule="evenodd" clip-rule="evenodd" d="M353.794 266.925C356.908 261.668 359.545 256.109 360.612 249.559C361.035 246.38 362.423 246.27 364.203 246.988C365.949 247.693 368.082 248.981 367.431 251.198C366.999 252.671 359.504 263.482 353.794 266.925Z" fill="#FCB43B"/>
<path fill-rule="evenodd" clip-rule="evenodd" d="M375.222 267.79C374.956 261.894 363.652 266.87 358.342 270.531C369.127 269.029 371.817 271.882 373.838 270.766C374.711 270.159 375.221 269.211 375.222 267.79Z" fill="#FCB43B"/>
<path fill-rule="evenodd" clip-rule="evenodd" d="M273.728 299.915L275.598 305.47L281.518 305.573L276.811 309.068L278.542 314.729L273.764 311.334L268.914 314.729L270.667 309.136L265.938 305.573L271.8 305.512L273.728 299.915Z" fill="#FCB43B"/>
<defs>
<linearGradient id="paint0_linear_25_378" x1="41.7714" y1="149.137" x2="190.804" y2="63.0702" gradientUnits="userSpaceOnUse">
<stop stop-color="#45C0BE"/>
<stop offset="0.156863" stop-color="#23A7A7"/>
<stop offset="0.321569" stop-color="#4DC2C1"/>
<stop offset="0.768627" stop-color="#019B99"/>
<stop offset="1" stop-color="#008E8F"/>
</linearGradient>
<linearGradient id="paint1_linear_25_378" x1="69.5274" y1="133.762" x2="199.429" y2="47.2446" gradientUnits="userSpaceOnUse">
<stop stop-color="#57A695"/>
<stop offset="0.694118" stop-color="#2C9B93"/>
<stop offset="0.85098" stop-color="#008F90"/>
<stop offset="1" stop-color="#009091"/>
</linearGradient>
<linearGradient id="paint2_linear_25_378" x1="138.403" y1="189.832" x2="196.01" y2="155.784" gradientUnits="userSpaceOnUse">
<stop stop-color="#26ACB5"/>
<stop offset="0.380392" stop-color="#188F98"/>
<stop offset="0.478431" stop-color="#1697A0"/>
<stop offset="1" stop-color="#0A727A"/>
</linearGradient>
<linearGradient id="paint3_linear_25_378" x1="174.285" y1="45.9076" x2="210.869" y2="15.9426" gradientUnits="userSpaceOnUse">
<stop stop-color="#66A374"/>
<stop offset="0.188235" stop-color="#90C096"/>
<stop offset="0.368627" stop-color="#6ABD50"/>
<stop offset="1" stop-color="#BBDEB9"/>
</linearGradient>
<radialGradient id="paint4_radial_25_378" cx="0" cy="0" r="1" gradientTransform="matrix(25.0529 -29.6014 20.5157 36.1477 190.148 41.2043)" gradientUnits="userSpaceOnUse">
<stop stop-color="#28B896"/>
<stop offset="0.729412" stop-color="#21AE9D"/>
<stop offset="1" stop-color="#1AA4A4"/>
</radialGradient>
<linearGradient id="paint5_linear_25_378" x1="220.364" y1="73.2968" x2="337.407" y2="105.943" gradientUnits="userSpaceOnUse">
<stop stop-color="#F89E32"/>
<stop offset="0.388235" stop-color="#F9C143"/>
<stop offset="0.619608" stop-color="#FAD84C"/>
<stop offset="1" stop-color="#FBE454"/>
</linearGradient>
<linearGradient id="paint6_linear_25_378" x1="214.84" y1="85.1099" x2="312.642" y2="45.6209" gradientUnits="userSpaceOnUse">
<stop stop-color="#F89E32"/>
<stop offset="0.388235" stop-color="#F9C143"/>
<stop offset="0.619608" stop-color="#FAD84C"/>
<stop offset="1" stop-color="#FBE454"/>
</linearGradient>
<linearGradient id="paint7_linear_25_378" x1="41.7709" y1="149.137" x2="190.803" y2="63.0702" gradientUnits="userSpaceOnUse">
<stop stop-color="#318A92"/>
<stop offset="0.156863" stop-color="#19828A"/>
<stop offset="0.321569" stop-color="#348B93"/>
<stop offset="0.768627" stop-color="#017E86"/>
<stop offset="1" stop-color="#017982"/>
</linearGradient>
<linearGradient id="paint8_linear_25_378" x1="69.5274" y1="133.762" x2="199.429" y2="47.2446" gradientUnits="userSpaceOnUse">
<stop stop-color="#3B8385"/>
<stop offset="0.694118" stop-color="#1E7F84"/>
<stop offset="0.85098" stop-color="#017982"/>
<stop offset="1" stop-color="#017A83"/>
</linearGradient>
<linearGradient id="paint9_linear_25_378" x1="138.403" y1="189.832" x2="196.01" y2="155.784" gradientUnits="userSpaceOnUse">
<stop stop-color="#25848F"/>
<stop offset="0.380392" stop-color="#207A85"/>
<stop offset="0.478431" stop-color="#217E88"/>
<stop offset="1" stop-color="#1A707B"/>
</linearGradient>
<linearGradient id="paint10_linear_25_378" x1="41.7709" y1="149.137" x2="190.803" y2="63.0702" gradientUnits="userSpaceOnUse">
<stop stop-color="#358991"/>
<stop offset="0.156863" stop-color="#1C7F88"/>
<stop offset="0.321569" stop-color="#398A92"/>
<stop offset="0.768627" stop-color="#027C83"/>
<stop offset="1" stop-color="#02757E"/>
</linearGradient>
<linearGradient id="paint11_linear_25_378" x1="69.5274" y1="133.762" x2="199.429" y2="47.2446" gradientUnits="userSpaceOnUse">
<stop stop-color="#3F8080"/>
<stop offset="0.694118" stop-color="#217B80"/>
<stop offset="0.85098" stop-color="#02767E"/>
<stop offset="1" stop-color="#02767F"/>
</linearGradient>
<linearGradient id="paint12_linear_25_378" x1="138.403" y1="189.832" x2="196.01" y2="155.784" gradientUnits="userSpaceOnUse">
<stop stop-color="#27828E"/>
<stop offset="0.380392" stop-color="#207682"/>
<stop offset="0.478431" stop-color="#247A86"/>
<stop offset="1" stop-color="#196975"/>
</linearGradient>
<linearGradient id="paint13_linear_25_378" x1="214.84" y1="85.1099" x2="312.642" y2="45.6209" gradientUnits="userSpaceOnUse">
<stop stop-color="#8D7A5D"/>
<stop offset="0.388235" stop-color="#8B8666"/>
<stop offset="0.619608" stop-color="#898F6C"/>
<stop offset="1" stop-color="#889370"/>
</linearGradient>
</defs>
</svg>
