<?xml version="1.0" encoding="UTF-8"?>
<!DOCTYPE svg PUBLIC "-//W3C//DTD SVG 1.1//EN" "http://www.w3.org/Graphics/SVG/1.1/DTD/svg11.dtd">
<!-- Creator: CorelDRAW 2019 (64 Bit) -->
<svg xmlns="http://www.w3.org/2000/svg" xml:space="preserve" width="210mm" height="297mm" version="1.1" style="shape-rendering:geometricPrecision; text-rendering:geometricPrecision; image-rendering:optimizeQuality; fill-rule:evenodd; clip-rule:evenodd"
viewBox="0 0 21000 29700"
 xmlns:xlink="http://www.w3.org/1999/xlink"
 xmlns:xodm="http://www.corel.com/coreldraw/odm/2003">
 <defs>
  <style type="text/css">
   <![CDATA[
    .fil25 {fill:none}
    .fil1 {fill:#373435}
    .fil39 {fill:#FCB43B}
    .fil26 {fill:#8599A5}
    .fil28 {fill:#4F5C63}
    .fil12 {fill:#7797A2}
    .fil14 {fill:#51676E}
    .fil11 {fill:#0D979D}
    .fil24 {fill:#1F7E88}
    .fil38 {fill:#1F7A84}
    .fil6 {fill:url(#id2)}
    .fil33 {fill:url(#id3)}
    .fil19 {fill:url(#id4)}
    .fil2 {fill:url(#id5)}
    .fil29 {fill:url(#id6)}
    .fil15 {fill:url(#id7)}
    .fil9 {fill:url(#id8)}
    .fil36 {fill:url(#id9)}
    .fil22 {fill:url(#id10)}
    .fil4 {fill:url(#id11)}
    .fil31 {fill:url(#id12)}
    .fil17 {fill:url(#id13)}
    .fil7 {fill:url(#id14)}
    .fil34 {fill:url(#id15)}
    .fil20 {fill:url(#id16)}
    .fil0 {fill:url(#id17)}
    .fil27 {fill:url(#id18)}
    .fil13 {fill:url(#id19)}
    .fil3 {fill:url(#id20)}
    .fil30 {fill:url(#id21)}
    .fil16 {fill:url(#id22)}
    .fil5 {fill:url(#id23)}
    .fil32 {fill:url(#id24)}
    .fil18 {fill:url(#id25)}
    .fil10 {fill:url(#id26)}
    .fil37 {fill:url(#id27)}
    .fil23 {fill:url(#id28)}
    .fil8 {fill:url(#id29)}
    .fil21 {fill:url(#id30)}
    .fil35 {fill:url(#id31)}
   ]]>
  </style>
   <clipPath id="id0">
    <path d="M11252.27 15760.52c-382.54,-537.5 -833.73,-998.35 -1325.38,-1397.19 66.98,-196.04 108.33,-385.21 110.93,-567.99 429.03,461.05 812.92,956.25 1127.85,1461.16 28.21,75.02 55.4,151.12 81.29,228.29l0.22 0.67 0.18 0.54 0.04 0.12 0.22 0.66 0.22 0.66 0.23 0.67 0.22 0.66 0.22 0.67 0.22 0.66 0.22 0.67 0.1 0.29 0.12 0.37 0.22 0.66 0.23 0.66 0.22 0.67 0.22 0.66 0.22 0.67 0.22 0.66 0.22 0.67 0.02 0.04 0.2 0.62 0.23 0.67 0.22 0.66 0.22 0.66 0.22 0.67 0.44 1.33 0.15 0.46 0.07 0.2 0.22 0.67 0.22 0.66 0.22 0.66 0.22 0.67 0.22 0.66 0.22 0.67 0.23 0.66 0.06 0.21 0.15 0.46 0.22 0.67 0.23 0.66 0.22 0.66 0.21 0.67 0.23 0.66 0.42 1.3 0.01 0.04 0.23 0.66 0.21 0.67 0.22 0.66 0.44 1.33 0.22 0.67 0.22 0.66 0.12 0.39 0.1 0.28 0.22 0.67 0.22 0.66 0.22 0.66 0.22 0.67 0.22 0.67 0.22 0.67 0.21 0.66 0.04 0.13 0.18 0.54 0.22 0.66 0.22 0.67 0.22 0.67 0.22 0.66 0.21 0.67 0.22 0.67 0.18 0.54 0.04 0.12 0.22 0.67 0.12 0.39 1.51 4.62 6.86 21.15 0.23 0.71 0.46 1.41 0.22 0.7 0.46 1.42 0.22 0.7 0.23 0.71 0.46 1.41 0.22 0.7 0.23 0.71 0.08 0.23 0.15 0.48 0.22 0.7 0.23 0.71 0.23 0.71 0.22 0.7 0.23 0.71 0.23 0.71 0.12 0.39 0.1 0.31 0.23 0.71 0.23 0.71 0.22 0.7 0.23 0.72 0.22 0.7 0.23 0.71 0.17 0.55 0.06 0.15 0.22 0.71 0.23 0.71 0.22 0.71 0.23 0.71 0.22 0.7 0.23 0.71 0.22 0.71c-5.16,59.76 -13.6,120.92 -24.97,182.98z"/>
   </clipPath>
   <clipPath id="id1">
    <path d="M9732.76 13002.48c12.76,13.45 25.48,26.95 38.16,40.49l8.24 8.83c13.3,14.27 26.56,28.58 39.77,42.96l6.6 7.21c13.14,14.35 26.25,28.76 39.3,43.23l6.04 6.71c13.59,15.1 27.12,30.25 40.59,45.48l4.85 5.49c13.67,15.47 27.28,31.01 40.83,46.61l5.06 5.84c13.35,15.4 26.64,30.86 39.87,46.39l4.37 5.13c13.53,15.91 27,31.89 40.41,47.93l3.75 4.48c13.71,16.44 27.36,32.95 40.95,49.52l3.68 4.51c13.22,16.15 26.37,32.37 39.45,48.66l4.01 4.99c13.63,17 27.21,34.09 40.71,51.24l0.91 1.15c13.94,17.71 27.79,35.51 41.57,53.38l1.9 2.47c13.32,17.28 26.56,34.64 39.74,52.08l2.6 3.46c13.38,17.71 26.67,35.51 39.89,53.38l1.03 1.4c13.58,18.38 27.08,36.84 40.51,55.39l0.75 1.03c13.34,18.44 26.6,36.96 39.77,55.57l1.01 1.42c13.29,18.77 26.5,37.62 39.62,56.56l0.13 0.2c51.75,74.72 102.14,150.76 151.16,228.13l8.08 12.78c10.08,15.99 20.1,32.03 30.06,48.13l7.25 11.77c10.1,16.41 20.14,32.88 30.12,49.41l6.31 10.48c10.33,17.2 20.6,34.46 30.79,51.78l4.98 8.49c10.36,17.68 20.65,35.42 30.87,53.24l4.48 7.8c10.53,18.44 21,36.95 31.38,55.53l3.28 5.87c10.74,19.27 21.4,38.6 31.96,58.02l1.84 3.39c10.96,20.17 21.83,40.42 32.59,60.76l0.93 1.74c123.25,233 234.12,477.25 330.76,733.51 -314.93,-504.91 -698.82,-1000.11 -1127.85,-1461.16 3.96,-278.67 -82.27,-542.44 -306.08,-792.8l1.02 -0.06z"/>
   </clipPath>
  <linearGradient id="id2" gradientUnits="userSpaceOnUse" x1="8433.28" y1="16002.9" x2="10853.04" y2="14573.03">
   <stop offset="0" style="stop-opacity:1; stop-color:#26ACB5"/>
   <stop offset="0.380392" style="stop-opacity:1; stop-color:#188F98"/>
   <stop offset="0.478431" style="stop-opacity:1; stop-color:#1697A0"/>
   <stop offset="1" style="stop-opacity:1; stop-color:#0A727A"/>
  </linearGradient>
  <linearGradient id="id3" gradientUnits="userSpaceOnUse" x1="8433.28" y1="16002.9" x2="10853.04" y2="14573.03">
   <stop offset="0" style="stop-opacity:1; stop-color:#27828E"/>
   <stop offset="0.380392" style="stop-opacity:1; stop-color:#207682"/>
   <stop offset="0.478431" style="stop-opacity:1; stop-color:#247A86"/>
   <stop offset="1" style="stop-opacity:1; stop-color:#196975"/>
  </linearGradient>
  <linearGradient id="id4" gradientUnits="userSpaceOnUse" x1="8433.28" y1="16002.9" x2="10853.04" y2="14573.03">
   <stop offset="0" style="stop-opacity:1; stop-color:#25848F"/>
   <stop offset="0.380392" style="stop-opacity:1; stop-color:#207A85"/>
   <stop offset="0.478431" style="stop-opacity:1; stop-color:#217E88"/>
   <stop offset="1" style="stop-opacity:1; stop-color:#1A707B"/>
  </linearGradient>
  <linearGradient id="id5" gradientUnits="userSpaceOnUse" x1="11001.35" y1="14876.08" x2="11014.74" y2="14876.08">
   <stop offset="0" style="stop-opacity:1; stop-color:#57A695"/>
   <stop offset="0.541176" style="stop-opacity:1; stop-color:#2D948F"/>
   <stop offset="0.639216" style="stop-opacity:1; stop-color:#55A394"/>
   <stop offset="1" style="stop-opacity:1; stop-color:#028288"/>
  </linearGradient>
  <linearGradient id="id6" gradientUnits="userSpaceOnUse" x1="11001.35" y1="14876.08" x2="11014.74" y2="14876.08">
   <stop offset="0" style="stop-opacity:1; stop-color:#3F8080"/>
   <stop offset="0.541176" style="stop-opacity:1; stop-color:#2E797E"/>
   <stop offset="0.639216" style="stop-opacity:1; stop-color:#3E7F80"/>
   <stop offset="1" style="stop-opacity:1; stop-color:#1D717B"/>
  </linearGradient>
  <linearGradient id="id7" gradientUnits="userSpaceOnUse" x1="11001.35" y1="14876.08" x2="11014.74" y2="14876.08">
   <stop offset="0" style="stop-opacity:1; stop-color:#3B8385"/>
   <stop offset="0.541176" style="stop-opacity:1; stop-color:#2D7D83"/>
   <stop offset="0.639216" style="stop-opacity:1; stop-color:#3A8285"/>
   <stop offset="1" style="stop-opacity:1; stop-color:#1E7680"/>
  </linearGradient>
  <linearGradient id="id8" gradientUnits="userSpaceOnUse" x1="11875.65" y1="11107.44" x2="16791.6" y2="12478.34">
   <stop offset="0" style="stop-opacity:1; stop-color:#F89E32"/>
   <stop offset="0.388235" style="stop-opacity:1; stop-color:#F9C143"/>
   <stop offset="0.619608" style="stop-opacity:1; stop-color:#FAD84C"/>
   <stop offset="1" style="stop-opacity:1; stop-color:#FBE454"/>
  </linearGradient>
  <linearGradient id="id9" gradientUnits="userSpaceOnUse" x1="11875.65" y1="11107.44" x2="16791.6" y2="12478.34">
   <stop offset="0" style="stop-opacity:1; stop-color:#8D7A5D"/>
   <stop offset="0.388235" style="stop-opacity:1; stop-color:#8B8666"/>
   <stop offset="0.619608" style="stop-opacity:1; stop-color:#898F6C"/>
   <stop offset="1" style="stop-opacity:1; stop-color:#889370"/>
  </linearGradient>
  <linearGradient id="id10" gradientUnits="userSpaceOnUse" x1="11875.65" y1="11107.44" x2="16791.6" y2="12478.34">
   <stop offset="0" style="stop-opacity:1; stop-color:#817E68"/>
   <stop offset="0.388235" style="stop-opacity:1; stop-color:#7E886F"/>
   <stop offset="0.619608" style="stop-opacity:1; stop-color:#7C8E74"/>
   <stop offset="1" style="stop-opacity:1; stop-color:#7B9277"/>
  </linearGradient>
  <linearGradient id="id11" gradientUnits="userSpaceOnUse" xlink:href="#id5" x1="11043.05" y1="14967.16" x2="11053.82" y2="14967.16">
  </linearGradient>
  <linearGradient id="id12" gradientUnits="userSpaceOnUse" xlink:href="#id6" x1="11043.05" y1="14967.16" x2="11053.82" y2="14967.16">
  </linearGradient>
  <linearGradient id="id13" gradientUnits="userSpaceOnUse" xlink:href="#id7" x1="11043.05" y1="14967.16" x2="11053.82" y2="14967.16">
  </linearGradient>
  <linearGradient id="id14" gradientUnits="userSpaceOnUse" x1="9940.29" y1="9956.86" x2="11477.08" y2="8698.38">
   <stop offset="0" style="stop-opacity:1; stop-color:#66A374"/>
   <stop offset="0.188235" style="stop-opacity:1; stop-color:#90C096"/>
   <stop offset="0.368627" style="stop-opacity:1; stop-color:#6ABD50"/>
   <stop offset="1" style="stop-opacity:1; stop-color:#BBDEB9"/>
  </linearGradient>
  <linearGradient id="id15" gradientUnits="userSpaceOnUse" x1="9940.29" y1="9956.86" x2="11477.08" y2="8698.38">
   <stop offset="0" style="stop-opacity:1; stop-color:#447E74"/>
   <stop offset="0.188235" style="stop-opacity:1; stop-color:#578781"/>
   <stop offset="0.368627" style="stop-opacity:1; stop-color:#458868"/>
   <stop offset="1" style="stop-opacity:1; stop-color:#6B918E"/>
  </linearGradient>
  <linearGradient id="id16" gradientUnits="userSpaceOnUse" x1="9940.29" y1="9956.86" x2="11477.08" y2="8698.38">
   <stop offset="0" style="stop-opacity:1; stop-color:#40817A"/>
   <stop offset="0.188235" style="stop-opacity:1; stop-color:#508985"/>
   <stop offset="0.368627" style="stop-opacity:1; stop-color:#408A71"/>
   <stop offset="1" style="stop-opacity:1; stop-color:#619190"/>
  </linearGradient>
  <linearGradient id="id17" gradientUnits="userSpaceOnUse" x1="4374.73" y1="14293.39" x2="10634.72" y2="10678.93">
   <stop offset="0" style="stop-opacity:1; stop-color:#45C0BE"/>
   <stop offset="0.156863" style="stop-opacity:1; stop-color:#23A7A7"/>
   <stop offset="0.321569" style="stop-opacity:1; stop-color:#4DC2C1"/>
   <stop offset="0.768627" style="stop-opacity:1; stop-color:#019B99"/>
   <stop offset="1" style="stop-opacity:1; stop-color:#008E8F"/>
  </linearGradient>
  <linearGradient id="id18" gradientUnits="userSpaceOnUse" x1="4374.73" y1="14293.39" x2="10634.72" y2="10678.93">
   <stop offset="0" style="stop-opacity:1; stop-color:#358991"/>
   <stop offset="0.156863" style="stop-opacity:1; stop-color:#1C7F88"/>
   <stop offset="0.321569" style="stop-opacity:1; stop-color:#398A92"/>
   <stop offset="0.768627" style="stop-opacity:1; stop-color:#027C83"/>
   <stop offset="1" style="stop-opacity:1; stop-color:#02757E"/>
  </linearGradient>
  <linearGradient id="id19" gradientUnits="userSpaceOnUse" x1="4374.73" y1="14293.39" x2="10634.72" y2="10678.93">
   <stop offset="0" style="stop-opacity:1; stop-color:#318A92"/>
   <stop offset="0.156863" style="stop-opacity:1; stop-color:#19828A"/>
   <stop offset="0.321569" style="stop-opacity:1; stop-color:#348B93"/>
   <stop offset="0.768627" style="stop-opacity:1; stop-color:#017E86"/>
   <stop offset="1" style="stop-opacity:1; stop-color:#017982"/>
  </linearGradient>
  <linearGradient id="id20" gradientUnits="userSpaceOnUse" xlink:href="#id5" x1="11023.24" y1="14922.04" x2="11034.05" y2="14922.04">
  </linearGradient>
  <linearGradient id="id21" gradientUnits="userSpaceOnUse" xlink:href="#id6" x1="11023.24" y1="14922.04" x2="11034.05" y2="14922.04">
  </linearGradient>
  <linearGradient id="id22" gradientUnits="userSpaceOnUse" xlink:href="#id7" x1="11023.24" y1="14922.04" x2="11034.05" y2="14922.04">
  </linearGradient>
  <linearGradient id="id23" gradientUnits="userSpaceOnUse" x1="5540.5" y1="13647.49" x2="10997.06" y2="10014.04">
   <stop offset="0" style="stop-opacity:1; stop-color:#57A695"/>
   <stop offset="0.694118" style="stop-opacity:1; stop-color:#2C9B93"/>
   <stop offset="0.85098" style="stop-opacity:1; stop-color:#008F90"/>
   <stop offset="1" style="stop-opacity:1; stop-color:#009091"/>
  </linearGradient>
  <linearGradient id="id24" gradientUnits="userSpaceOnUse" x1="5540.5" y1="13647.49" x2="10997.06" y2="10014.04">
   <stop offset="0" style="stop-opacity:1; stop-color:#3F8080"/>
   <stop offset="0.694118" style="stop-opacity:1; stop-color:#217B80"/>
   <stop offset="0.85098" style="stop-opacity:1; stop-color:#02767E"/>
   <stop offset="1" style="stop-opacity:1; stop-color:#02767F"/>
  </linearGradient>
  <linearGradient id="id25" gradientUnits="userSpaceOnUse" x1="5540.5" y1="13647.49" x2="10997.06" y2="10014.04">
   <stop offset="0" style="stop-opacity:1; stop-color:#3B8385"/>
   <stop offset="0.694118" style="stop-opacity:1; stop-color:#1E7F84"/>
   <stop offset="0.85098" style="stop-opacity:1; stop-color:#017982"/>
   <stop offset="1" style="stop-opacity:1; stop-color:#017A83"/>
  </linearGradient>
  <linearGradient id="id26" gradientUnits="userSpaceOnUse" x1="11643.63" y1="11603.69" x2="15751.55" y2="9945.39">
   <stop offset="0" style="stop-opacity:1; stop-color:#F89E32"/>
   <stop offset="0.388235" style="stop-opacity:1; stop-color:#F9C143"/>
   <stop offset="0.619608" style="stop-opacity:1; stop-color:#FAD84C"/>
   <stop offset="1" style="stop-opacity:1; stop-color:#FBE454"/>
  </linearGradient>
  <linearGradient id="id27" gradientUnits="userSpaceOnUse" x1="11643.63" y1="11603.69" x2="15751.55" y2="9945.39">
   <stop offset="0" style="stop-opacity:1; stop-color:#8D7A5D"/>
   <stop offset="0.388235" style="stop-opacity:1; stop-color:#8B8666"/>
   <stop offset="0.619608" style="stop-opacity:1; stop-color:#898F6C"/>
   <stop offset="1" style="stop-opacity:1; stop-color:#889370"/>
  </linearGradient>
  <linearGradient id="id28" gradientUnits="userSpaceOnUse" x1="11643.63" y1="11603.69" x2="15751.55" y2="9945.39">
   <stop offset="0" style="stop-opacity:1; stop-color:#817E68"/>
   <stop offset="0.388235" style="stop-opacity:1; stop-color:#7E886F"/>
   <stop offset="0.619608" style="stop-opacity:1; stop-color:#7C8E74"/>
   <stop offset="1" style="stop-opacity:1; stop-color:#7B9277"/>
  </linearGradient>
  <radialGradient id="id29" gradientUnits="userSpaceOnUse" gradientTransform="matrix(1.07222 -1.26714 0.878033 1.54737 -9335 8098)" cx="10606.55" cy="9759.31" r="981.35" fx="10606.55" fy="9759.31">
   <stop offset="0" style="stop-opacity:1; stop-color:#28B896"/>
   <stop offset="0.729412" style="stop-opacity:1; stop-color:#21AE9D"/>
   <stop offset="1" style="stop-opacity:1; stop-color:#1AA4A4"/>
  </radialGradient>
  <radialGradient id="id30" gradientUnits="userSpaceOnUse" gradientTransform="matrix(1.07222 -1.26714 0.878033 1.54737 -9335 8098)" cx="10606.55" cy="9759.31" r="981.35" fx="10606.55" fy="9759.31">
   <stop offset="0" style="stop-opacity:1; stop-color:#268886"/>
   <stop offset="0.729412" style="stop-opacity:1; stop-color:#248588"/>
   <stop offset="1" style="stop-opacity:1; stop-color:#22828A"/>
  </radialGradient>
  <radialGradient id="id31" gradientUnits="userSpaceOnUse" gradientTransform="matrix(1.07222 -1.26714 0.878033 1.54737 -9335 8098)" cx="10606.55" cy="9759.31" r="981.35" fx="10606.55" fy="9759.31">
   <stop offset="0" style="stop-opacity:1; stop-color:#298782"/>
   <stop offset="0.729412" style="stop-opacity:1; stop-color:#268385"/>
   <stop offset="1" style="stop-opacity:1; stop-color:#247F87"/>
  </radialGradient>
 </defs>
 <g id="Camada_x0020_1">
  <metadata id="CorelCorpID_0Corel-Layer"/>
  <path class="fil0" d="M11277.24 15577.54c-527.95,-1659.69 -1637.51,-2840.96 -2888.12,-3725.16 -1059.06,-748.78 -2211.65,-1266.31 -3090.75,-1476.07 -351.5,-83.88 -687.93,-120.58 -1048.1,-108.25 -147.61,5.05 -275.08,15.33 -364.81,10.75 -264.47,-21.44 -153.08,-265.24 80.24,-461.05 157.42,-132.1 357.85,-222.45 551.07,-287.85 599.54,-202.93 1274.66,-167.16 1887.9,39.62 652.93,220.17 1331.3,712.83 1848.69,1157.22 1510.94,1297.74 2763.99,3216.43 3023.88,4850.79z"/>
  <path class="fil1" d="M11014.74 14890.87c-4.44,-9.88 -8.91,-19.74 -13.39,-29.58 4.48,9.84 8.95,19.7 13.39,29.58z"/>
  <path class="fil2" d="M11014.74 14890.87c-4.44,-9.88 -8.91,-19.74 -13.39,-29.58 4.48,9.84 8.95,19.7 13.39,29.58z"/>
  <path class="fil1" d="M11034.05 14934.23c-3.59,-8.14 -7.19,-16.27 -10.81,-24.38 3.62,8.12 7.23,16.25 10.81,24.38z"/>
  <path class="fil3" d="M11034.05 14934.23c-3.59,-8.14 -7.19,-16.27 -10.81,-24.38 3.62,8.12 7.23,16.25 10.81,24.38z"/>
  <path class="fil1" d="M11053.82 14979.57c-3.57,-8.29 -7.16,-16.56 -10.77,-24.82 3.61,8.25 7.2,16.54 10.77,24.82z"/>
  <path class="fil4" d="M11053.82 14979.57c-3.57,-8.29 -7.16,-16.56 -10.77,-24.82 3.61,8.25 7.2,16.54 10.77,24.82z"/>
  <path class="fil5" d="M6061.62 9473.41l-0.04 -0.04c-54.3,-411.15 -346.76,-877.25 -839.59,-1389.6 2168.69,208.35 6547.82,4116.11 6055.25,7493.77l0 0c-259.89,-1634.36 -1512.94,-3553.05 -3023.88,-4850.79 -517.39,-444.39 -1195.76,-937.05 -1848.69,-1157.22 -112.55,-37.95 -227.18,-70.12 -343.05,-96.12z"/>
  <path class="fil6" d="M10560.02 14052.38c-29.73,1752.11 -590.71,2738.58 -1293.24,3521.06l-51.98 -4.65c-916.69,-571.45 -373.36,-1296.68 246.49,-2205.44 473.91,-905.42 876.99,-1682.31 270.45,-2360.81l1.03 -0.06c303.44,319.67 582.45,668.3 827.25,1049.9z"/>
  <circle class="fil7" cx="10708.69" cy="9327.59" r="993.16"/>
  <path class="fil8" d="M10957.39 10289.35c-79.48,20.49 -162.82,31.4 -248.7,31.4 -548.51,0 -993.17,-444.66 -993.17,-993.16 0,-339.3 170.19,-638.8 429.81,-817.96 498.02,338.71 825.16,909.95 825.16,1557.64 0,75.15 -4.54,149.23 -13.1,222.08z"/>
  <path class="fil9" d="M16423.7 10256.48c-2826.21,-60.45 -4352.4,1878.05 -4532.25,3971.51 -497.35,-1896.72 634.52,-3794.92 2222.14,-4576.65 390.42,-192.23 723,-306.55 1160.4,-292.37 699.82,22.69 1529.25,326.11 1619.8,795 4.43,61.24 -24.54,93.03 -73.36,107.67 -81.87,24.57 -233.89,-4.5 -396.73,-5.16z"/>
  <path class="fil10" d="M11779.15 13520.65l-0.02 0.07c-829.17,-2162.73 1037.63,-5052.95 4034.31,-5492.37 -536.24,461.09 -890.14,922.19 -1074.26,1383.29l-0.03 0.02c-209.28,50.01 -408.48,132.79 -625.56,239.68 -1389.68,684.26 -2430.14,2223.95 -2334.44,3869.31z"/>
  <path class="fil11" d="M11262.68 15532.36l-1.63 -5.01c-4.65,-14.23 -9.36,-28.4 -14.09,-42.56l-2.25 -6.72c-4.68,-13.94 -9.41,-27.84 -14.18,-41.72l-2.43 -7.05c-4.7,-13.63 -9.44,-27.23 -14.22,-40.79l-2.89 -8.18c-4.68,-13.23 -9.4,-26.45 -14.16,-39.62l-3.35 -9.22c-4.79,-13.19 -9.61,-26.38 -14.47,-39.51l-2.31 -6.2c-4.68,-12.58 -9.39,-25.13 -14.13,-37.66l-3.49 -9.19c-4.42,-11.61 -8.87,-23.2 -13.35,-34.76l-4.4 -11.37c-4.47,-11.46 -8.97,-22.9 -13.49,-34.32l-5.58 -14.05c-4.26,-10.71 -8.56,-21.39 -12.89,-32.05l-6.76 -16.64c-4.06,-9.94 -8.13,-19.85 -12.24,-29.75l-7.44 -17.89c-3.45,-8.26 -6.92,-16.52 -10.41,-24.77 -3.25,-7.68 -6.51,-15.36 -9.79,-23.02l-7.93 -18.48c-4.16,-9.65 -8.34,-19.28 -12.54,-28.89l-7.14 -16.27c-4.58,-10.43 -9.2,-20.82 -13.83,-31.2l-6 -13.39c-5.8,-12.91 -11.64,-25.78 -17.52,-38.62l-2.92 -6.39c-128.39,-279.81 -274.26,-544.29 -434.83,-794.61 -29.75,1752.06 -590.73,2738.51 -1293.24,3520.98l8.66 27.82c946.68,341.76 1916.07,-1031.16 2001.8,-2023.72 -4.8,-15.1 -9.66,-30.16 -14.56,-45.18z"/>
  <g style="clip-path:url(#id0)">
   <polygon class="fil12" points="7386.89,11255.34 13817.24,11255.34 13817.24,18300.52 7386.89,18300.52 "/>
   <g id="Camada_x0020_1_0">
    <metadata id="CorelCorpID_1Corel-Layer"/>
    <path id="1" class="fil13" d="M11277.24 15577.54c-527.95,-1659.69 -1637.51,-2840.96 -2888.12,-3725.16 -1059.06,-748.78 -2211.65,-1266.31 -3090.75,-1476.07 -351.5,-83.88 -687.93,-120.58 -1048.1,-108.25 -147.61,5.05 -275.08,15.33 -364.81,10.75 -264.47,-21.44 -153.08,-265.24 80.24,-461.05 157.42,-132.1 357.85,-222.45 551.07,-287.85 599.54,-202.93 1274.66,-167.16 1887.9,39.62 652.93,220.17 1331.3,712.83 1848.69,1157.22 1510.94,1297.74 2763.99,3216.43 3023.88,4850.79z"/>
    <path class="fil14" d="M11014.74 14890.87c-4.44,-9.88 -8.91,-19.74 -13.39,-29.58 4.48,9.84 8.95,19.7 13.39,29.58z"/>
    <path class="fil15" d="M11014.74 14890.87c-4.44,-9.88 -8.91,-19.74 -13.39,-29.58 4.48,9.84 8.95,19.7 13.39,29.58z"/>
    <path class="fil14" d="M11034.05 14934.23c-3.59,-8.14 -7.19,-16.27 -10.81,-24.38 3.62,8.12 7.23,16.25 10.81,24.38z"/>
    <path class="fil16" d="M11034.05 14934.23c-3.59,-8.14 -7.19,-16.27 -10.81,-24.38 3.62,8.12 7.23,16.25 10.81,24.38z"/>
    <path class="fil14" d="M11053.82 14979.57c-3.57,-8.29 -7.16,-16.56 -10.77,-24.82 3.61,8.25 7.2,16.54 10.77,24.82z"/>
    <path class="fil17" d="M11053.82 14979.57c-3.57,-8.29 -7.16,-16.56 -10.77,-24.82 3.61,8.25 7.2,16.54 10.77,24.82z"/>
    <path class="fil18" d="M6061.62 9473.41l-0.04 -0.04c-54.3,-411.15 -346.76,-877.25 -839.59,-1389.6 2168.69,208.35 6547.82,4116.11 6055.25,7493.77l0 0c-259.89,-1634.36 -1512.94,-3553.05 -3023.88,-4850.79 -517.39,-444.39 -1195.76,-937.05 -1848.69,-1157.22 -112.55,-37.95 -227.18,-70.12 -343.05,-96.12z"/>
    <path class="fil19" d="M10560.02 14052.38c-29.73,1752.11 -590.71,2738.58 -1293.24,3521.06l-51.98 -4.65c-916.69,-571.45 -373.36,-1296.68 246.49,-2205.44 473.91,-905.42 876.99,-1682.31 270.45,-2360.81l1.03 -0.06c303.44,319.67 582.45,668.3 827.25,1049.9z"/>
    <path class="fil20" d="M10708.69 10320.75c547.01,0 993.17,-446.15 993.17,-993.17 0,-547.02 -446.16,-993.16 -993.17,-993.16 -547.02,0 -993.17,446.14 -993.17,993.16 0,547.02 446.15,993.17 993.17,993.17z"/>
    <path class="fil21" d="M10957.39 10289.35c-79.48,20.49 -162.82,31.4 -248.7,31.4 -548.51,0 -993.17,-444.66 -993.17,-993.16 0,-339.3 170.19,-638.8 429.81,-817.96 498.02,338.71 825.16,909.95 825.16,1557.64 0,75.15 -4.54,149.23 -13.1,222.08z"/>
    <path class="fil22" d="M16423.7 10256.48c-2826.21,-60.45 -4352.4,1878.05 -4532.25,3971.51 -497.35,-1896.72 634.52,-3794.92 2222.14,-4576.65 390.42,-192.23 723,-306.55 1160.4,-292.37 699.82,22.69 1529.25,326.11 1619.8,795 4.43,61.24 -24.54,93.03 -73.36,107.67 -81.87,24.57 -233.89,-4.5 -396.73,-5.16z"/>
    <path class="fil23" d="M11779.15 13520.65l-0.02 0.07c-829.17,-2162.73 1037.63,-5052.95 4034.31,-5492.37 -536.24,461.09 -890.14,922.19 -1074.26,1383.29l-0.03 0.02c-209.28,50.01 -408.48,132.79 -625.56,239.68 -1389.68,684.26 -2430.14,2223.95 -2334.44,3869.31z"/>
    <path class="fil24" d="M11262.68 15532.36l-1.63 -5.01c-4.65,-14.23 -9.36,-28.4 -14.09,-42.56l-2.25 -6.72c-4.68,-13.94 -9.41,-27.84 -14.18,-41.72l-2.43 -7.05c-4.7,-13.63 -9.44,-27.23 -14.22,-40.79l-2.89 -8.18c-4.68,-13.23 -9.4,-26.45 -14.16,-39.62l-3.35 -9.22c-4.79,-13.19 -9.61,-26.38 -14.47,-39.51l-2.31 -6.2c-4.68,-12.58 -9.39,-25.13 -14.13,-37.66l-3.49 -9.19c-4.42,-11.61 -8.87,-23.2 -13.35,-34.76l-4.4 -11.37c-4.47,-11.46 -8.97,-22.9 -13.49,-34.32l-5.58 -14.05c-4.26,-10.71 -8.56,-21.39 -12.89,-32.05l-6.76 -16.64c-4.06,-9.94 -8.13,-19.85 -12.24,-29.75l-7.44 -17.89c-3.45,-8.26 -6.92,-16.52 -10.41,-24.77 -3.25,-7.68 -6.51,-15.36 -9.79,-23.02l-7.93 -18.48c-4.16,-9.65 -8.34,-19.28 -12.54,-28.89l-7.14 -16.27c-4.58,-10.43 -9.2,-20.82 -13.83,-31.2l-6 -13.39c-5.8,-12.91 -11.64,-25.78 -17.52,-38.62l-2.92 -6.39c-128.39,-279.81 -274.26,-544.29 -434.83,-794.61 -29.75,1752.06 -590.73,2738.51 -1293.24,3520.98l8.66 27.82c946.68,341.76 1916.07,-1031.16 2001.8,-2023.72 -4.8,-15.1 -9.66,-30.16 -14.56,-45.18z"/>
   </g>
  </g>
  <path class="fil25" d="M11252.27 15760.52c-382.54,-537.5 -833.73,-998.35 -1325.38,-1397.19 66.98,-196.04 108.33,-385.21 110.93,-567.99 429.03,461.05 812.92,956.25 1127.85,1461.16 28.21,75.02 55.4,151.12 81.29,228.29l0.22 0.67 0.18 0.54 0.04 0.12 0.22 0.66 0.22 0.66 0.23 0.67 0.22 0.66 0.22 0.67 0.22 0.66 0.22 0.67 0.1 0.29 0.12 0.37 0.22 0.66 0.23 0.66 0.22 0.67 0.22 0.66 0.22 0.67 0.22 0.66 0.22 0.67 0.02 0.04 0.2 0.62 0.23 0.67 0.22 0.66 0.22 0.66 0.22 0.67 0.44 1.33 0.15 0.46 0.07 0.2 0.22 0.67 0.22 0.66 0.22 0.66 0.22 0.67 0.22 0.66 0.22 0.67 0.23 0.66 0.06 0.21 0.15 0.46 0.22 0.67 0.23 0.66 0.22 0.66 0.21 0.67 0.23 0.66 0.42 1.3 0.01 0.04 0.23 0.66 0.21 0.67 0.22 0.66 0.44 1.33 0.22 0.67 0.22 0.66 0.12 0.39 0.1 0.28 0.22 0.67 0.22 0.66 0.22 0.66 0.22 0.67 0.22 0.67 0.22 0.67 0.21 0.66 0.04 0.13 0.18 0.54 0.22 0.66 0.22 0.67 0.22 0.67 0.22 0.66 0.21 0.67 0.22 0.67 0.18 0.54 0.04 0.12 0.22 0.67 0.12 0.39 1.51 4.62 6.86 21.15 0.23 0.71 0.46 1.41 0.22 0.7 0.46 1.42 0.22 0.7 0.23 0.71 0.46 1.41 0.22 0.7 0.23 0.71 0.08 0.23 0.15 0.48 0.22 0.7 0.23 0.71 0.23 0.71 0.22 0.7 0.23 0.71 0.23 0.71 0.12 0.39 0.1 0.31 0.23 0.71 0.23 0.71 0.22 0.7 0.23 0.72 0.22 0.7 0.23 0.71 0.17 0.55 0.06 0.15 0.22 0.71 0.23 0.71 0.22 0.71 0.23 0.71 0.22 0.7 0.23 0.71 0.22 0.71c-5.16,59.76 -13.6,120.92 -24.97,182.98z"/>
  <g style="clip-path:url(#id1)">
   <polygon class="fil26" points="7191.74,10462.48 13705.67,10462.48 13705.67,17796.5 7191.74,17796.5 "/>
   <g id="Camada_x0020_1_1">
    <metadata id="CorelCorpID_2Corel-Layer"/>
    <path id="1" class="fil27" d="M11277.24 15577.54c-527.95,-1659.69 -1637.51,-2840.96 -2888.12,-3725.16 -1059.06,-748.78 -2211.65,-1266.31 -3090.75,-1476.07 -351.5,-83.88 -687.93,-120.58 -1048.1,-108.25 -147.61,5.05 -275.08,15.33 -364.81,10.75 -264.47,-21.44 -153.08,-265.24 80.24,-461.05 157.42,-132.1 357.85,-222.45 551.07,-287.85 599.54,-202.93 1274.66,-167.16 1887.9,39.62 652.93,220.17 1331.3,712.83 1848.69,1157.22 1510.94,1297.74 2763.99,3216.43 3023.88,4850.79z"/>
    <path class="fil28" d="M11014.74 14890.87c-4.44,-9.88 -8.91,-19.74 -13.39,-29.58 4.48,9.84 8.95,19.7 13.39,29.58z"/>
    <path class="fil29" d="M11014.74 14890.87c-4.44,-9.88 -8.91,-19.74 -13.39,-29.58 4.48,9.84 8.95,19.7 13.39,29.58z"/>
    <path class="fil28" d="M11034.05 14934.23c-3.59,-8.14 -7.19,-16.27 -10.81,-24.38 3.62,8.12 7.23,16.25 10.81,24.38z"/>
    <path class="fil30" d="M11034.05 14934.23c-3.59,-8.14 -7.19,-16.27 -10.81,-24.38 3.62,8.12 7.23,16.25 10.81,24.38z"/>
    <path class="fil28" d="M11053.82 14979.57c-3.57,-8.29 -7.16,-16.56 -10.77,-24.82 3.61,8.25 7.2,16.54 10.77,24.82z"/>
    <path class="fil31" d="M11053.82 14979.57c-3.57,-8.29 -7.16,-16.56 -10.77,-24.82 3.61,8.25 7.2,16.54 10.77,24.82z"/>
    <path class="fil32" d="M6061.62 9473.41l-0.04 -0.04c-54.3,-411.15 -346.76,-877.25 -839.59,-1389.6 2168.69,208.35 6547.82,4116.11 6055.25,7493.77l0 0c-259.89,-1634.36 -1512.94,-3553.05 -3023.88,-4850.79 -517.39,-444.39 -1195.76,-937.05 -1848.69,-1157.22 -112.55,-37.95 -227.18,-70.12 -343.05,-96.12z"/>
    <path class="fil33" d="M10560.02 14052.38c-29.73,1752.11 -590.71,2738.58 -1293.24,3521.06l-51.98 -4.65c-916.69,-571.45 -373.36,-1296.68 246.49,-2205.44 473.91,-905.42 876.99,-1682.31 270.45,-2360.81l1.03 -0.06c303.44,319.67 582.45,668.3 827.25,1049.9z"/>
    <path class="fil34" d="M10708.69 10320.75c547.01,0 993.17,-446.15 993.17,-993.17 0,-547.02 -446.16,-993.16 -993.17,-993.16 -547.02,0 -993.17,446.14 -993.17,993.16 0,547.02 446.15,993.17 993.17,993.17z"/>
    <path class="fil35" d="M10957.39 10289.35c-79.48,20.49 -162.82,31.4 -248.7,31.4 -548.51,0 -993.17,-444.66 -993.17,-993.16 0,-339.3 170.19,-638.8 429.81,-817.96 498.02,338.71 825.16,909.95 825.16,1557.64 0,75.15 -4.54,149.23 -13.1,222.08z"/>
    <path class="fil36" d="M16423.7 10256.48c-2826.21,-60.45 -4352.4,1878.05 -4532.25,3971.51 -497.35,-1896.72 634.52,-3794.92 2222.14,-4576.65 390.42,-192.23 723,-306.55 1160.4,-292.37 699.82,22.69 1529.25,326.11 1619.8,795 4.43,61.24 -24.54,93.03 -73.36,107.67 -81.87,24.57 -233.89,-4.5 -396.73,-5.16z"/>
    <path class="fil37" d="M11779.15 13520.65l-0.02 0.07c-829.17,-2162.73 1037.63,-5052.95 4034.31,-5492.37 -536.24,461.09 -890.14,922.19 -1074.26,1383.29l-0.03 0.02c-209.28,50.01 -408.48,132.79 -625.56,239.68 -1389.68,684.26 -2430.14,2223.95 -2334.44,3869.31z"/>
    <path class="fil38" d="M11262.68 15532.36l-1.63 -5.01c-4.65,-14.23 -9.36,-28.4 -14.09,-42.56l-2.25 -6.72c-4.68,-13.94 -9.41,-27.84 -14.18,-41.72l-2.43 -7.05c-4.7,-13.63 -9.44,-27.23 -14.22,-40.79l-2.89 -8.18c-4.68,-13.23 -9.4,-26.45 -14.16,-39.62l-3.35 -9.22c-4.79,-13.19 -9.61,-26.38 -14.47,-39.51l-2.31 -6.2c-4.68,-12.58 -9.39,-25.13 -14.13,-37.66l-3.49 -9.19c-4.42,-11.61 -8.87,-23.2 -13.35,-34.76l-4.4 -11.37c-4.47,-11.46 -8.97,-22.9 -13.49,-34.32l-5.58 -14.05c-4.26,-10.71 -8.56,-21.39 -12.89,-32.05l-6.76 -16.64c-4.06,-9.94 -8.13,-19.85 -12.24,-29.75l-7.44 -17.89c-3.45,-8.26 -6.92,-16.52 -10.41,-24.77 -3.25,-7.68 -6.51,-15.36 -9.79,-23.02l-7.93 -18.48c-4.16,-9.65 -8.34,-19.28 -12.54,-28.89l-7.14 -16.27c-4.58,-10.43 -9.2,-20.82 -13.83,-31.2l-6 -13.39c-5.8,-12.91 -11.64,-25.78 -17.52,-38.62l-2.92 -6.39c-128.39,-279.81 -274.26,-544.29 -434.83,-794.61 -29.75,1752.06 -590.73,2738.51 -1293.24,3520.98l8.66 27.82c946.68,341.76 1916.07,-1031.16 2001.8,-2023.72 -4.8,-15.1 -9.66,-30.16 -14.56,-45.18z"/>
    <path class="fil25" d="M11252.27 15760.52c-382.54,-537.5 -833.73,-998.35 -1325.38,-1397.19 66.98,-196.04 108.33,-385.21 110.93,-567.99 429.03,461.05 812.92,956.25 1127.85,1461.16 28.21,75.02 55.4,151.12 81.29,228.29l0.22 0.67 0.18 0.54 0.04 0.12 0.22 0.66 0.22 0.66 0.23 0.67 0.22 0.66 0.22 0.67 0.22 0.66 0.22 0.67 0.1 0.29 0.12 0.37 0.22 0.66 0.23 0.66 0.22 0.67 0.22 0.66 0.22 0.67 0.22 0.66 0.22 0.67 0.02 0.04 0.2 0.62 0.23 0.67 0.22 0.66 0.22 0.66 0.22 0.67 0.44 1.33 0.15 0.46 0.07 0.2 0.22 0.67 0.22 0.66 0.22 0.66 0.22 0.67 0.22 0.66 0.22 0.67 0.23 0.66 0.06 0.21 0.15 0.46 0.22 0.67 0.23 0.66 0.22 0.66 0.21 0.67 0.23 0.66 0.42 1.3 0.01 0.04 0.23 0.66 0.21 0.67 0.22 0.66 0.44 1.33 0.22 0.67 0.22 0.66 0.12 0.39 0.1 0.28 0.22 0.67 0.22 0.66 0.22 0.66 0.22 0.67 0.22 0.67 0.22 0.67 0.21 0.66 0.04 0.13 0.18 0.54 0.22 0.66 0.22 0.67 0.22 0.67 0.22 0.66 0.21 0.67 0.22 0.67 0.18 0.54 0.04 0.12 0.22 0.67 0.12 0.39 1.51 4.62 6.86 21.15 0.23 0.71 0.46 1.41 0.22 0.7 0.46 1.42 0.22 0.7 0.23 0.71 0.46 1.41 0.22 0.7 0.23 0.71 0.08 0.23 0.15 0.48 0.22 0.7 0.23 0.71 0.23 0.71 0.22 0.7 0.23 0.71 0.23 0.71 0.12 0.39 0.1 0.31 0.23 0.71 0.23 0.71 0.22 0.7 0.23 0.72 0.22 0.7 0.23 0.71 0.17 0.55 0.06 0.15 0.22 0.71 0.23 0.71 0.22 0.71 0.23 0.71 0.22 0.7 0.23 0.71 0.22 0.71c-5.16,59.76 -13.6,120.92 -24.97,182.98z"/>
   </g>
  </g>
  <path class="fil25" d="M9732.76 13002.48c12.76,13.45 25.48,26.95 38.16,40.49l8.24 8.83c13.3,14.27 26.56,28.58 39.77,42.96l6.6 7.21c13.14,14.35 26.25,28.76 39.3,43.23l6.04 6.71c13.59,15.1 27.12,30.25 40.59,45.48l4.85 5.49c13.67,15.47 27.28,31.01 40.83,46.61l5.06 5.84c13.35,15.4 26.64,30.86 39.87,46.39l4.37 5.13c13.53,15.91 27,31.89 40.41,47.93l3.75 4.48c13.71,16.44 27.36,32.95 40.95,49.52l3.68 4.51c13.22,16.15 26.37,32.37 39.45,48.66l4.01 4.99c13.63,17 27.21,34.09 40.71,51.24l0.91 1.15c13.94,17.71 27.79,35.51 41.57,53.38l1.9 2.47c13.32,17.28 26.56,34.64 39.74,52.08l2.6 3.46c13.38,17.71 26.67,35.51 39.89,53.38l1.03 1.4c13.58,18.38 27.08,36.84 40.51,55.39l0.75 1.03c13.34,18.44 26.6,36.96 39.77,55.57l1.01 1.42c13.29,18.77 26.5,37.62 39.62,56.56l0.13 0.2c51.75,74.72 102.14,150.76 151.16,228.13l8.08 12.78c10.08,15.99 20.1,32.03 30.06,48.13l7.25 11.77c10.1,16.41 20.14,32.88 30.12,49.41l6.31 10.48c10.33,17.2 20.6,34.46 30.79,51.78l4.98 8.49c10.36,17.68 20.65,35.42 30.87,53.24l4.48 7.8c10.53,18.44 21,36.95 31.38,55.53l3.28 5.87c10.74,19.27 21.4,38.6 31.96,58.02l1.84 3.39c10.96,20.17 21.83,40.42 32.59,60.76l0.93 1.74c123.25,233 234.12,477.25 330.76,733.51 -314.93,-504.91 -698.82,-1000.11 -1127.85,-1461.16 3.96,-278.67 -82.27,-542.44 -306.08,-792.8l1.02 -0.06z"/>
  <path class="fil1" d="M3668.11 20179.72c128.06,130.21 209.98,332.58 182.66,591.62l-227.83 0 -89.02 0 -606.97 0c32.38,168.45 191.69,296.37 383.36,296.37 130.11,0 245.3,-58.96 316,-149.53l164.77 152.86c-119.8,153.33 -306.44,251.91 -516.12,251.91 -361.53,0 -654.62,-293.08 -654.62,-654.62 0,-190.64 81.49,-362.24 211.53,-481.88 235.79,-216.92 603.23,-243.64 836.24,-6.73zm-418.59 85.62c169.25,0 309.94,127.92 338.53,296.37l-677.07 0c28.6,-168.45 169.28,-296.37 338.54,-296.37zm1147.01 -90.78c92.31,-93.24 220.18,-151.22 360.95,-151.22l0 0c163.53,0 309.65,78.24 402.84,199.13 93.19,-120.89 239.3,-199.13 402.84,-199.13l0 0c279.69,0 508.53,228.83 508.53,508.52l0 747.85 -315.09 0 0 -729.89c0,-133.82 -109.49,-243.3 -243.3,-243.3l-23.93 0c-144.79,0 -263.24,118.46 -263.24,263.24l0 709.95 -303.13 0 0 -729.89c0,-133.82 -109.48,-243.3 -243.29,-243.3l-23.94 0c-144.78,0 -263.23,118.46 -263.23,263.24l0 709.95 -143.59 0 -159.54 0 0 -1236.43 307.12 0 0 131.28zm2674.7 -152.89c328.54,0 594.87,289.39 594.87,646.37 0,356.98 -266.33,646.37 -594.87,646.37 -157.52,0 -300.71,-66.55 -407.14,-175.15l0 532.39 -310.49 0 0 -1631.38 310.49 0 0 156.55c106.43,-108.6 249.62,-175.15 407.14,-175.15zm-62.15 252.15c192.22,0 348.04,172.52 348.04,385.35 0,212.81 -155.82,385.33 -348.04,385.33 -192.22,0 -348.05,-172.52 -348.05,-385.33 0,-212.83 155.83,-385.35 348.05,-385.35zm900.21 1002.7l313.48 0 0 -1744.58 -313.48 0 0 1744.58zm1231.2 -1253.92c366.33,0 663.3,289.85 663.3,647.4 0,357.55 -296.97,647.4 -663.3,647.4 -366.33,0 -663.3,-289.85 -663.3,-647.4 0,-357.55 296.97,-647.4 663.3,-647.4zm0 268.05c203.24,0 368,169.84 368,379.35 0,209.52 -164.76,379.36 -368,379.36 -203.24,0 -368,-169.84 -368,-379.36 0,-209.51 164.76,-379.35 368,-379.35z"/>
  <path class="fil39" d="M17144.22 20746.45l229.72 0 76.78 -1124.38 -379.01 0 72.51 1124.38zm127.35 177.79c108.36,0 196.21,87.85 196.21,196.21 0,108.36 -87.85,196.21 -196.21,196.21 -108.36,0 -196.21,-87.85 -196.21,-196.21 0,-108.36 87.85,-196.21 196.21,-196.21zm-2023.2 351.12l344.28 0 0 -662.07 775.57 0 0 662.07 344.27 0 0 -1653.29 -344.27 0 0 696.13 -775.57 0 0 -696.13 -344.28 0 0 1653.29zm-583.31 7.66l385.06 -5.79 -758.08 -1655.16 -12.98 0 -324.29 0 -12.99 0 -758.07 1655.16 385.05 5.79 548.15 -1281.79 548.15 1281.79zm-2938.05 -7.66l117.28 0 227 0 960.95 0 0 -317.79 -960.95 0 0 -344.28 855.02 0 0 -295.09 -855.02 0 0 -378.34 960.95 0 0 -317.79 -960.95 0 -227 0 -117.28 0 0 1653.29zm-1222 0l344.28 0 0 -545.12 677.22 -1108.17 -374.55 0 -471.02 770.76 -471.03 -770.76 -374.54 0 669.64 1095.77 0 557.52z"/>
  <path class="fil39" d="M17479.69 19241.46c130.81,-220.85 241.55,-454.35 286.35,-729.5 17.79,-133.54 76.07,-138.19 150.83,-108.02 73.33,29.6 162.91,83.72 135.57,176.86 -18.15,61.86 -332.93,516.02 -572.75,660.66z"/>
  <path class="fil39" d="M18379.66 19277.79c-11.19,-247.65 -485.95,-38.63 -708.97,115.15 452.98,-63.07 565.96,56.78 650.82,9.88 36.68,-25.51 58.09,-65.3 58.15,-125.03z"/>
  <polygon class="fil39" points="14116.91,20627.33 14195.45,20860.68 14444.07,20865.03 14246.41,21011.83 14319.11,21249.63 14118.41,21107 13914.71,21249.63 13988.34,21014.68 13789.75,20865.03 14035.95,20862.44 "/>
 </g>
</svg>
