<svg width="1066" height="274" viewBox="0 0 1066 274" fill="none" xmlns="http://www.w3.org/2000/svg">
<g id="Property 1=300" filter="url(#filter0_i_92_10376)">
<g id="LOGO_EX">
<path id="Ellipse 9" d="M294.873 88.9294C85.2366 22.1219 178.227 42.8551 125.242 273.224C79.168 252.491 200.421 -3.2182 0 54.3743C62.1997 -97.6701 41.4665 118.877 133.614 105.055C179.688 105.055 329.428 -72.3295 294.873 88.9294Z" fill="url(#paint0_linear_92_10376)"/>
<ellipse id="Ellipse 10" cx="129.006" cy="31.3361" rx="18.4295" ry="18.4295" fill="url(#paint1_linear_92_10376)"/>
<rect id="Rectangle 3" x="55.2886" y="54.8438" width="21.5222" height="4.01616" rx="2.00808" transform="rotate(-61.4218 55.2886 54.8438)" fill="url(#paint2_linear_92_10376)"/>
<rect id="Rectangle 4" width="21.5222" height="4.01616" rx="2.00808" transform="matrix(-0.478357 -0.878165 -0.878165 0.478357 211.939 68.6666)" fill="url(#paint3_linear_92_10376)"/>
</g>
<path id="EmploYEAH!" d="M411.188 165.487V180.112H362.75V165.487H411.188ZM368.875 89.1121V180.112H350.125V89.1121H368.875ZM404.875 126.175V140.425H362.75V126.175H404.875ZM411.125 89.1121V103.8H362.75V89.1121H411.125ZM439 126.487V180.112H420.938V112.487H437.875L439 126.487ZM436.5 143.925H431.5C431.5 139.216 432.062 134.883 433.188 130.925C434.354 126.925 436.042 123.466 438.25 120.55C440.5 117.591 443.271 115.3 446.562 113.675C449.854 112.05 453.667 111.237 458 111.237C461 111.237 463.75 111.695 466.25 112.612C468.75 113.487 470.896 114.883 472.688 116.8C474.521 118.675 475.938 121.133 476.938 124.175C477.938 127.175 478.438 130.779 478.438 134.987V180.112H460.438V136.987C460.438 133.904 460.021 131.529 459.188 129.862C458.354 128.195 457.167 127.029 455.625 126.362C454.125 125.695 452.312 125.362 450.188 125.362C447.854 125.362 445.812 125.841 444.062 126.8C442.354 127.758 440.938 129.091 439.812 130.8C438.688 132.466 437.854 134.425 437.312 136.675C436.771 138.925 436.5 141.341 436.5 143.925ZM476.75 141.862L470.312 142.675C470.312 138.258 470.854 134.154 471.938 130.362C473.062 126.57 474.708 123.237 476.875 120.362C479.083 117.487 481.812 115.258 485.062 113.675C488.312 112.05 492.062 111.237 496.312 111.237C499.562 111.237 502.521 111.716 505.188 112.675C507.854 113.591 510.125 115.07 512 117.112C513.917 119.112 515.375 121.737 516.375 124.987C517.417 128.237 517.938 132.216 517.938 136.925V180.112H499.875V136.925C499.875 133.8 499.458 131.425 498.625 129.8C497.833 128.133 496.667 126.987 495.125 126.362C493.625 125.695 491.833 125.362 489.75 125.362C487.583 125.362 485.688 125.8 484.062 126.675C482.438 127.508 481.083 128.675 480 130.175C478.917 131.675 478.104 133.425 477.562 135.425C477.021 137.383 476.75 139.529 476.75 141.862ZM549.875 125.487V206.112H531.875V112.487H548.562L549.875 125.487ZM592.688 145.55V146.862C592.688 151.779 592.104 156.341 590.938 160.55C589.812 164.758 588.146 168.425 585.938 171.55C583.729 174.633 580.979 177.05 577.688 178.8C574.438 180.508 570.688 181.362 566.438 181.362C562.312 181.362 558.729 180.529 555.688 178.862C552.646 177.195 550.083 174.862 548 171.862C545.958 168.82 544.312 165.3 543.062 161.3C541.812 157.3 540.854 153.008 540.188 148.425V144.987C540.854 140.07 541.812 135.57 543.062 131.487C544.312 127.362 545.958 123.8 548 120.8C550.083 117.758 552.625 115.404 555.625 113.737C558.667 112.07 562.229 111.237 566.312 111.237C570.604 111.237 574.375 112.05 577.625 113.675C580.917 115.3 583.667 117.633 585.875 120.675C588.125 123.716 589.812 127.341 590.938 131.55C592.104 135.758 592.688 140.425 592.688 145.55ZM574.625 146.862V145.55C574.625 142.675 574.375 140.029 573.875 137.612C573.417 135.154 572.667 133.008 571.625 131.175C570.625 129.341 569.292 127.925 567.625 126.925C566 125.883 564.021 125.362 561.688 125.362C559.229 125.362 557.125 125.758 555.375 126.55C553.667 127.341 552.271 128.487 551.188 129.987C550.104 131.487 549.292 133.279 548.75 135.362C548.208 137.445 547.875 139.8 547.75 142.425V151.112C547.958 154.195 548.542 156.966 549.5 159.425C550.458 161.841 551.938 163.758 553.938 165.175C555.938 166.591 558.562 167.3 561.812 167.3C564.188 167.3 566.188 166.779 567.812 165.737C569.438 164.654 570.75 163.175 571.75 161.3C572.792 159.425 573.521 157.258 573.938 154.8C574.396 152.341 574.625 149.695 574.625 146.862ZM622.875 84.1121V180.112H604.812V84.1121H622.875ZM634.875 146.987V145.675C634.875 140.716 635.583 136.154 637 131.987C638.417 127.779 640.479 124.133 643.188 121.05C645.896 117.966 649.229 115.57 653.188 113.862C657.146 112.112 661.688 111.237 666.812 111.237C671.938 111.237 676.5 112.112 680.5 113.862C684.5 115.57 687.854 117.966 690.562 121.05C693.312 124.133 695.396 127.779 696.812 131.987C698.229 136.154 698.938 140.716 698.938 145.675V146.987C698.938 151.904 698.229 156.466 696.812 160.675C695.396 164.841 693.312 168.487 690.562 171.612C687.854 174.695 684.521 177.091 680.562 178.8C676.604 180.508 672.062 181.362 666.938 181.362C661.812 181.362 657.25 180.508 653.25 178.8C649.292 177.091 645.938 174.695 643.188 171.612C640.479 168.487 638.417 164.841 637 160.675C635.583 156.466 634.875 151.904 634.875 146.987ZM652.875 145.675V146.987C652.875 149.82 653.125 152.466 653.625 154.925C654.125 157.383 654.917 159.55 656 161.425C657.125 163.258 658.583 164.695 660.375 165.737C662.167 166.779 664.354 167.3 666.938 167.3C669.438 167.3 671.583 166.779 673.375 165.737C675.167 164.695 676.604 163.258 677.688 161.425C678.771 159.55 679.562 157.383 680.062 154.925C680.604 152.466 680.875 149.82 680.875 146.987V145.675C680.875 142.925 680.604 140.341 680.062 137.925C679.562 135.466 678.75 133.3 677.625 131.425C676.542 129.508 675.104 128.008 673.312 126.925C671.521 125.841 669.354 125.3 666.812 125.3C664.271 125.3 662.104 125.841 660.312 126.925C658.562 128.008 657.125 129.508 656 131.425C654.917 133.3 654.125 135.466 653.625 137.925C653.125 140.341 652.875 142.925 652.875 145.675ZM723.625 89.1121L742.625 130.612L761.625 89.1121H782.062L752.125 146.987V180.112H733.125V146.987L703.125 89.1121H723.625ZM851.438 165.487V180.112H803V165.487H851.438ZM809.125 89.1121V180.112H790.375V89.1121H809.125ZM845.125 126.175V140.425H803V126.175H845.125ZM851.375 89.1121V103.8H803V89.1121H851.375ZM899.375 104.675L874.625 180.112H854.688L888.5 89.1121H901.188L899.375 104.675ZM919.938 180.112L895.125 104.675L893.125 89.1121H905.938L939.938 180.112H919.938ZM918.812 146.237V160.925H870.75V146.237H918.812ZM1009.06 126.175V140.8H961.562V126.175H1009.06ZM967.125 89.1121V180.112H948.375V89.1121H967.125ZM1022.44 89.1121V180.112H1003.75V89.1121H1022.44ZM1057.94 89.1121L1055.88 152.3H1040.88L1038.75 89.1121H1057.94ZM1038.25 171.862C1038.25 169.195 1039.17 166.987 1041 165.237C1042.88 163.445 1045.33 162.55 1048.38 162.55C1051.46 162.55 1053.92 163.445 1055.75 165.237C1057.58 166.987 1058.5 169.195 1058.5 171.862C1058.5 174.445 1057.58 176.633 1055.75 178.425C1053.92 180.216 1051.46 181.112 1048.38 181.112C1045.33 181.112 1042.88 180.216 1041 178.425C1039.17 176.633 1038.25 174.445 1038.25 171.862Z" fill="url(#paint4_linear_92_10376)"/>
</g>
<defs>
<filter id="filter0_i_92_10376" x="0" y="-7.62939e-06" width="1066" height="277.224" filterUnits="userSpaceOnUse" color-interpolation-filters="sRGB">
<feFlood flood-opacity="0" result="BackgroundImageFix"/>
<feBlend mode="normal" in="SourceGraphic" in2="BackgroundImageFix" result="shape"/>
<feColorMatrix in="SourceAlpha" type="matrix" values="0 0 0 0 0 0 0 0 0 0 0 0 0 0 0 0 0 0 127 0" result="hardAlpha"/>
<feOffset dy="4"/>
<feGaussianBlur stdDeviation="2.5"/>
<feComposite in2="hardAlpha" operator="arithmetic" k2="-1" k3="1"/>
<feColorMatrix type="matrix" values="0 0 0 0 0 0 0 0 0 0 0 0 0 0 0 0 0 0 0.25 0"/>
<feBlend mode="normal" in2="shape" result="effect1_innerShadow_92_10376"/>
</filter>
<linearGradient id="paint0_linear_92_10376" x1="23.0369" y1="98.1435" x2="304.087" y2="98.1435" gradientUnits="userSpaceOnUse">
<stop stop-color="#7A97DF"/>
<stop offset="1" stop-color="#4F6CFF"/>
</linearGradient>
<linearGradient id="paint1_linear_92_10376" x1="110.577" y1="31.3361" x2="147.436" y2="31.3361" gradientUnits="userSpaceOnUse">
<stop stop-color="#7A97DF"/>
<stop offset="1" stop-color="#4F6CFF"/>
</linearGradient>
<linearGradient id="paint2_linear_92_10376" x1="55.2886" y1="56.8518" x2="76.8108" y2="56.8518" gradientUnits="userSpaceOnUse">
<stop stop-color="#7A97DF"/>
<stop offset="1" stop-color="#5774FA"/>
</linearGradient>
<linearGradient id="paint3_linear_92_10376" x1="0" y1="2.00808" x2="21.5222" y2="2.00808" gradientUnits="userSpaceOnUse">
<stop stop-color="#7A97DF"/>
<stop offset="1" stop-color="#5774FA"/>
</linearGradient>
<linearGradient id="paint4_linear_92_10376" x1="342" y1="136.612" x2="1066" y2="136.612" gradientUnits="userSpaceOnUse">
<stop stop-color="#7A97DF"/>
<stop offset="1" stop-color="#5774FA"/>
</linearGradient>
</defs>
</svg>
